<?xml version="1.0" encoding="utf-8"?>
<!-- Generator: Adobe Illustrator 16.0.0, SVG Export Plug-In . SVG Version: 6.00 Build 0)  -->
<!DOCTYPE svg PUBLIC "-//W3C//DTD SVG 1.1//EN" "http://www.w3.org/Graphics/SVG/1.1/DTD/svg11.dtd">
<svg version="1.1" id="Layer_1" xmlns="http://www.w3.org/2000/svg" xmlns:xlink="http://www.w3.org/1999/xlink" x="0px" y="0px"
	 width="238px" height="58px" viewBox="-1.963 -0.226 238 58" enable-background="new -1.963 -0.226 238 58" xml:space="preserve">
<g>
	<path fill="#2DDDF5" d="M63.77,15.396v-0.077c0-7.781,6.002-14.297,14.492-14.297s14.415,6.438,14.415,14.217v0.08
		c0,7.778-6.004,14.294-14.493,14.294C69.694,29.612,63.77,23.176,63.77,15.396z M87.583,15.396v-0.077
		c0-5.371-3.911-9.834-9.399-9.834c-5.49,0-9.32,4.383-9.32,9.754v0.08c0,5.369,3.91,9.832,9.398,9.832S87.583,20.767,87.583,15.396
		z"/>
	<g>
		<rect x="-0.669" y="8.288" fill="#FFFFFF" width="4.778" height="20.851"/>
		<rect x="-0.866" y="0.549" fill="#FFFFFF" width="5.133" height="4.541"/>
		<path fill="#FFFFFF" d="M27.445,14.765c2.054-1.066,3.949-2.843,3.949-6.161V8.525c0-1.855-0.631-3.356-1.854-4.58
			c-1.581-1.581-4.07-2.449-7.227-2.449h-12.4v27.643h12.795c6.16,0,10.227-2.646,10.227-7.582v-0.079
			C32.935,17.727,30.685,15.87,27.445,14.765z M14.69,5.8h6.99c3.119,0,4.857,1.343,4.857,3.515v0.079
			c0,2.528-2.093,3.751-5.213,3.751H14.69V5.8z M28.078,21.043c0,2.488-2.015,3.791-5.331,3.791H14.69v-7.582h7.701
			c3.829,0,5.687,1.383,5.687,3.712V21.043z"/>
		<path fill="#FFFFFF" d="M60.02,10.303v-0.08c0-2.408-0.828-4.463-2.289-5.962c-1.777-1.738-4.502-2.765-7.976-2.765H37.434v27.643
			h4.858v-9.635h6.001h0.079l6.792,9.635h5.725l-7.463-10.465C57.295,17.568,60.02,14.844,60.02,10.303z M42.292,15.199v-9.28h7.067
			c3.592,0,5.725,1.618,5.725,4.581v0.078c0,2.805-2.211,4.621-5.686,4.621H42.292z"/>
		<polygon fill="#FFFFFF" points="121.54,1.496 115.575,1.496 102.427,15.396 102.427,1.496 97.569,1.496 97.569,29.139 
			102.427,29.139 102.427,21.122 106.731,16.699 116.169,29.139 122.054,29.139 110.048,13.383 		"/>
		<polygon fill="#FFFFFF" points="130.065,17.371 143.927,17.371 143.927,13.027 130.065,13.027 130.065,5.84 145.704,5.84 
			145.704,1.496 125.208,1.496 125.208,29.139 145.901,29.139 145.901,24.795 130.065,24.795 		"/>
		<path fill="#FFFFFF" d="M166.671,18.674c3.869-1.105,6.594-3.83,6.594-8.371v-0.08c0-2.408-0.83-4.463-2.291-5.962
			c-1.775-1.738-4.5-2.765-7.977-2.765h-12.32v27.643h4.857v-9.635h6.002h0.078l6.793,9.635h5.727L166.671,18.674z M155.534,15.199
			v-9.28h7.068c3.594,0,5.727,1.618,5.727,4.581v0.078c0,2.805-2.211,4.621-5.688,4.621H155.534z"/>
	</g>
	<path fill="#FFFFFF" d="M88.397,47.684l9.316-9.316l9.314,9.316L97.714,57L88.397,47.684z M100.476,49.828l0.465-1.293
		c1.41,1.178,2.688-0.316,2.688-0.316c0.02-0.176,0.029-0.354,0.029-0.535c0-1.961-0.953-3.701-2.418-4.785l0.018,0.158
		c-0.566,4.648-1.146,8.566-4.449,8.73c-3.303,0.168-3.834-3.285-3.834-3.285c0.176,0.416,0.383,0.713,0.383,0.713
		c2.156,2.822,3.982,1.561,5.027,0.248c0.912-1.141,1.256-6.115,1.328-7.377c-0.623-0.223-1.297-0.346-1.998-0.346
		c-3.279,0-5.943,2.662-5.943,5.943c0,3.283,2.664,5.943,5.943,5.943c2.51,0,4.654-1.555,5.525-3.754
		C101.722,51.432,100.476,49.828,100.476,49.828z M94.448,49.598c0,0-0.496-0.516-0.828-2.34c-0.332-1.826,0.996-3.006,2.572-2.955
		s2.457,1.527,2.457,1.527l-0.199,1.592c-0.713-1.094-1.658-1.145-2.107-1.227c-0.447-0.084-1.51-0.25-2.143,0.664
		C93.571,47.771,94.448,49.598,94.448,49.598z"/>
	<g>
		<path fill="#FFFFFF" d="M112.386,51.955h-0.781l2.742-8.555h0.863l2.686,8.555h-0.84l-0.703-2.277h-3.285L112.386,51.955z
			 M113.274,49.01h2.898l-1.426-4.818L113.274,49.01z"/>
		<path fill="#FFFFFF" d="M118.86,43.4h0.77v5.609c0,0.514,0.02,0.898,0.066,1.15c0.045,0.254,0.115,0.457,0.217,0.605
			c0.154,0.225,0.357,0.398,0.607,0.52c0.248,0.123,0.529,0.184,0.842,0.184c0.314,0,0.598-0.061,0.848-0.184
			c0.252-0.121,0.453-0.295,0.604-0.52c0.104-0.148,0.178-0.352,0.221-0.605c0.041-0.252,0.062-0.637,0.062-1.15V43.4h0.76v5.609
			c0,1.115-0.191,1.912-0.576,2.383c-0.387,0.473-1.025,0.707-1.918,0.707c-0.889,0-1.529-0.238-1.918-0.717
			c-0.393-0.477-0.584-1.268-0.584-2.373V43.4z"/>
		<path fill="#FFFFFF" d="M127.804,47.834h-1.58v4.121h-0.748V43.4h1.697c1.082,0,1.803,0.154,2.16,0.459s0.535,0.875,0.535,1.705
			c0,0.584-0.096,1.029-0.291,1.334s-0.51,0.506-0.943,0.604c0.434,0.08,0.734,0.244,0.902,0.49c0.17,0.246,0.254,0.672,0.254,1.279
			v0.543c0,0.322,0.012,0.66,0.037,1.016c0.023,0.355,0.062,0.73,0.111,1.125h-0.826c-0.057-0.594-0.088-1.229-0.098-1.898
			c-0.01-0.672-0.018-1.045-0.025-1.123c-0.043-0.398-0.156-0.68-0.336-0.85C128.472,47.916,128.188,47.834,127.804,47.834z
			 M126.224,47.229h0.904c0.734,0,1.244-0.127,1.535-0.385c0.289-0.258,0.436-0.709,0.436-1.361c0-0.547-0.125-0.926-0.373-1.135
			c-0.25-0.209-0.73-0.314-1.441-0.314h-1.061V47.229z"/>
		<path fill="#FFFFFF" d="M131.437,51.955V43.4h0.77v8.555H131.437z"/>
		<path fill="#FFFFFF" d="M137.888,48.07h-1.686v-0.615h2.469v4.264c-0.451,0.125-0.881,0.223-1.289,0.285s-0.795,0.096-1.156,0.096
			c-0.406,0-0.773-0.068-1.1-0.205s-0.594-0.334-0.803-0.596c-0.229-0.281-0.391-0.67-0.482-1.168
			c-0.098-0.496-0.145-1.338-0.145-2.525c0-1.107,0.051-1.91,0.154-2.4c0.102-0.49,0.275-0.885,0.518-1.182
			c0.213-0.252,0.48-0.439,0.803-0.562c0.32-0.125,0.703-0.188,1.146-0.188c0.816,0,1.422,0.176,1.818,0.525
			c0.395,0.352,0.596,0.885,0.596,1.604v0.129h-0.736c0-0.557-0.133-0.967-0.393-1.225c-0.262-0.258-0.674-0.389-1.238-0.389
			c-0.318,0-0.594,0.053-0.826,0.16c-0.234,0.105-0.424,0.266-0.572,0.479c-0.164,0.234-0.283,0.57-0.35,1.002
			c-0.068,0.434-0.102,1.143-0.102,2.123c0,0.986,0.033,1.695,0.102,2.125c0.066,0.432,0.186,0.762,0.35,0.994
			c0.156,0.217,0.35,0.379,0.59,0.484c0.236,0.107,0.518,0.16,0.838,0.16c0.203,0,0.432-0.023,0.68-0.066
			c0.25-0.045,0.523-0.113,0.814-0.207V48.07z"/>
		<path fill="#FFFFFF" d="M140.272,51.955h-0.783l2.742-8.555h0.865l2.686,8.555h-0.842l-0.701-2.277h-3.289L140.272,51.955z
			 M141.159,49.01h2.9l-1.428-4.818L141.159,49.01z"/>
		<path fill="#FFFFFF" d="M153.528,48.07h-1.688v-0.615h2.469v4.264c-0.451,0.125-0.881,0.223-1.289,0.285s-0.793,0.096-1.156,0.096
			c-0.406,0-0.771-0.068-1.098-0.205c-0.328-0.137-0.596-0.334-0.805-0.596c-0.229-0.281-0.389-0.67-0.486-1.168
			c-0.094-0.496-0.141-1.338-0.141-2.525c0-1.107,0.053-1.91,0.154-2.4s0.277-0.885,0.52-1.182c0.213-0.252,0.479-0.439,0.801-0.562
			c0.32-0.125,0.703-0.188,1.146-0.188c0.814,0,1.422,0.176,1.82,0.525c0.393,0.352,0.594,0.885,0.594,1.604v0.129h-0.736
			c0-0.557-0.133-0.967-0.393-1.225c-0.262-0.258-0.676-0.389-1.238-0.389c-0.316,0-0.592,0.053-0.824,0.16
			c-0.234,0.105-0.428,0.266-0.572,0.479c-0.166,0.234-0.283,0.57-0.352,1.002c-0.068,0.434-0.102,1.143-0.102,2.123
			c0,0.986,0.033,1.695,0.102,2.125c0.068,0.432,0.186,0.762,0.352,0.994c0.154,0.217,0.35,0.379,0.588,0.484
			c0.238,0.107,0.516,0.16,0.84,0.16c0.201,0,0.432-0.023,0.68-0.066c0.248-0.045,0.521-0.113,0.814-0.207V48.07z"/>
		<path fill="#FFFFFF" d="M155.899,51.955V43.4h0.785v7.887h2.846v0.668H155.899z"/>
		<path fill="#FFFFFF" d="M160.075,47.682c0-1.172,0.051-2.002,0.154-2.49c0.102-0.488,0.273-0.879,0.518-1.168
			c0.217-0.252,0.488-0.439,0.812-0.562c0.324-0.125,0.703-0.188,1.137-0.188c0.428,0,0.809,0.062,1.139,0.189
			s0.6,0.312,0.809,0.561c0.248,0.293,0.424,0.689,0.525,1.188c0.102,0.5,0.154,1.324,0.154,2.471c0,1.152-0.053,1.977-0.154,2.477
			c-0.102,0.498-0.277,0.891-0.525,1.182c-0.209,0.24-0.482,0.426-0.822,0.561c-0.34,0.133-0.715,0.199-1.125,0.199
			s-0.785-0.066-1.123-0.199c-0.338-0.135-0.613-0.32-0.826-0.561c-0.246-0.291-0.422-0.684-0.52-1.182
			C160.126,49.658,160.075,48.834,160.075,47.682z M160.87,47.682c0,1.488,0.133,2.484,0.398,2.992
			c0.268,0.506,0.742,0.76,1.428,0.76c0.684,0,1.158-0.252,1.424-0.754c0.264-0.504,0.396-1.502,0.396-2.998
			c0-1.504-0.133-2.508-0.396-3.01c-0.266-0.502-0.74-0.754-1.424-0.754c-0.686,0-1.16,0.254-1.428,0.764
			C161.003,45.189,160.87,46.189,160.87,47.682z"/>
		<path fill="#FFFFFF" d="M166.796,51.955V43.4h1.699c1.082,0,1.801,0.154,2.158,0.459c0.359,0.305,0.539,0.875,0.539,1.705
			c0,0.58-0.1,1.023-0.293,1.33c-0.197,0.303-0.51,0.506-0.943,0.607c0.486,0.1,0.844,0.318,1.072,0.654
			c0.229,0.338,0.342,0.811,0.342,1.42c0,0.496-0.059,0.902-0.178,1.223c-0.119,0.318-0.309,0.572-0.559,0.762
			c-0.193,0.143-0.434,0.244-0.721,0.305c-0.289,0.061-0.762,0.09-1.418,0.09H166.796z M167.546,47.229h0.902
			c0.725,0,1.229-0.125,1.523-0.375c0.289-0.252,0.436-0.686,0.436-1.301c0-0.6-0.115-1.002-0.346-1.207
			c-0.234-0.207-0.754-0.312-1.566-0.312h-0.949V47.229z M167.546,51.324h0.949c0.865,0,1.424-0.123,1.674-0.369
			c0.252-0.246,0.379-0.713,0.379-1.4c0-0.643-0.146-1.09-0.441-1.342c-0.295-0.254-0.846-0.379-1.658-0.379h-0.902V51.324z"/>
		<path fill="#FFFFFF" d="M172.81,51.955h-0.785l2.746-8.555h0.863l2.682,8.555h-0.838l-0.701-2.277h-3.289L172.81,51.955z
			 M173.696,49.01h2.898l-1.426-4.818L173.696,49.01z"/>
		<path fill="#FFFFFF" d="M179.413,51.955V43.4h0.783v7.887h2.848v0.668H179.413z"/>
		<path fill="#FFFFFF" d="M186.69,51.955V43.4h0.771v8.555H186.69z"/>
		<path fill="#FFFFFF" d="M189.103,51.955V43.4h1.199l3.613,8.068c-0.049-0.311-0.086-0.621-0.111-0.934
			c-0.021-0.312-0.033-0.629-0.033-0.945V43.4h0.746v8.555h-1.152l-3.619-8.002c0.041,0.248,0.07,0.514,0.09,0.797
			c0.018,0.285,0.029,0.588,0.029,0.914v6.291H189.103z"/>
		<path fill="#FFFFFF" d="M197.749,51.955l-2.355-8.555h0.836l1.482,5.562c0.055,0.197,0.129,0.496,0.219,0.893
			c0.092,0.4,0.191,0.865,0.305,1.398c0.098-0.441,0.283-1.164,0.562-2.17l0.041-0.145l1.529-5.539h0.75l-2.404,8.555H197.749z"/>
		<path fill="#FFFFFF" d="M205.839,51.955h-3.84V43.4h3.84v0.67h-3.07v3.158h2.889v0.627h-2.889v3.387h3.07V51.955z"/>
		<path fill="#FFFFFF" d="M206.968,49.543l0.795,0.006c-0.004,0.027-0.006,0.062-0.008,0.102c-0.004,0.041-0.004,0.098-0.004,0.176
			c0,0.537,0.129,0.941,0.389,1.213c0.258,0.271,0.645,0.406,1.154,0.406c0.473,0,0.848-0.141,1.131-0.418
			c0.283-0.279,0.424-0.648,0.424-1.113c0-0.334-0.094-0.623-0.275-0.875c-0.184-0.252-0.645-0.613-1.383-1.084
			c-0.066-0.043-0.164-0.107-0.297-0.191c-0.562-0.355-0.965-0.637-1.201-0.842c-0.213-0.189-0.375-0.422-0.486-0.695
			c-0.113-0.273-0.168-0.578-0.168-0.91c0-0.631,0.209-1.131,0.631-1.5c0.418-0.369,0.986-0.555,1.707-0.555
			c0.715,0,1.26,0.188,1.641,0.561c0.379,0.373,0.566,0.912,0.566,1.615v0.174h-0.781v-0.08c0-0.547-0.121-0.951-0.361-1.215
			c-0.242-0.266-0.613-0.398-1.111-0.398c-0.457,0-0.822,0.123-1.098,0.369c-0.273,0.244-0.41,0.572-0.41,0.982
			c0,0.355,0.111,0.676,0.336,0.957c0.223,0.281,0.773,0.695,1.646,1.24c0.766,0.473,1.262,0.867,1.49,1.189
			c0.229,0.32,0.342,0.707,0.342,1.158c0,0.725-0.207,1.285-0.627,1.686c-0.416,0.4-1.004,0.6-1.762,0.6
			c-0.754,0-1.324-0.191-1.711-0.574c-0.385-0.383-0.578-0.945-0.578-1.688c0-0.08,0-0.143,0.002-0.184
			C206.962,49.611,206.964,49.574,206.968,49.543z"/>
		<path fill="#FFFFFF" d="M214.413,51.955V44.07h-2.08V43.4h4.904v0.67h-2.088v7.885H214.413z"/>
		<path fill="#FFFFFF" d="M217.755,47.682c0-1.172,0.051-2.002,0.152-2.49c0.104-0.488,0.277-0.879,0.52-1.168
			c0.217-0.252,0.486-0.439,0.812-0.562c0.322-0.125,0.701-0.188,1.135-0.188c0.43,0,0.809,0.062,1.141,0.189
			c0.33,0.127,0.602,0.312,0.807,0.561c0.25,0.293,0.424,0.689,0.527,1.188c0.102,0.5,0.152,1.324,0.152,2.471
			c0,1.152-0.051,1.977-0.152,2.477c-0.104,0.498-0.277,0.891-0.527,1.182c-0.205,0.24-0.48,0.426-0.822,0.561
			c-0.34,0.133-0.717,0.199-1.125,0.199c-0.41,0-0.783-0.066-1.123-0.199c-0.338-0.135-0.611-0.32-0.824-0.561
			c-0.248-0.291-0.422-0.684-0.523-1.182C217.804,49.658,217.755,48.834,217.755,47.682z M218.548,47.682
			c0,1.488,0.133,2.484,0.4,2.992c0.268,0.506,0.74,0.76,1.426,0.76s1.158-0.252,1.424-0.754c0.264-0.504,0.396-1.502,0.396-2.998
			c0-1.504-0.133-2.508-0.396-3.01c-0.266-0.502-0.738-0.754-1.424-0.754s-1.158,0.254-1.426,0.764
			C218.681,45.189,218.548,46.189,218.548,47.682z"/>
		<path fill="#FFFFFF" d="M226.806,47.834h-1.584v4.121h-0.746V43.4h1.699c1.08,0,1.801,0.154,2.158,0.459s0.535,0.875,0.535,1.705
			c0,0.584-0.096,1.029-0.289,1.334c-0.197,0.305-0.512,0.506-0.943,0.604c0.432,0.08,0.732,0.244,0.9,0.49s0.252,0.672,0.252,1.279
			v0.543c0,0.322,0.012,0.66,0.039,1.016c0.023,0.355,0.062,0.73,0.111,1.125h-0.828c-0.055-0.594-0.086-1.229-0.096-1.898
			c-0.008-0.672-0.02-1.045-0.027-1.123c-0.041-0.398-0.154-0.68-0.334-0.85C227.47,47.916,227.187,47.834,226.806,47.834z
			 M225.222,47.229h0.906c0.732,0,1.246-0.127,1.535-0.385s0.436-0.709,0.436-1.361c0-0.547-0.125-0.926-0.373-1.135
			c-0.25-0.209-0.73-0.314-1.441-0.314h-1.062V47.229z"/>
		<path fill="#FFFFFF" d="M230.274,49.543l0.793,0.006c-0.004,0.027-0.008,0.062-0.01,0.102c0,0.041-0.002,0.098-0.002,0.176
			c0,0.537,0.131,0.941,0.389,1.213s0.643,0.406,1.154,0.406c0.473,0,0.85-0.141,1.131-0.418c0.283-0.279,0.424-0.648,0.424-1.113
			c0-0.334-0.092-0.623-0.277-0.875c-0.184-0.252-0.643-0.613-1.383-1.084c-0.066-0.043-0.162-0.107-0.295-0.191
			c-0.564-0.355-0.965-0.637-1.203-0.842c-0.211-0.189-0.373-0.422-0.484-0.695c-0.113-0.273-0.168-0.578-0.168-0.91
			c0-0.631,0.209-1.131,0.629-1.5c0.418-0.369,0.988-0.555,1.707-0.555c0.715,0,1.264,0.188,1.641,0.561
			c0.379,0.373,0.568,0.912,0.568,1.615v0.174h-0.781v-0.08c0-0.547-0.123-0.951-0.363-1.215c-0.242-0.266-0.611-0.398-1.109-0.398
			c-0.457,0-0.822,0.123-1.096,0.369c-0.277,0.244-0.412,0.572-0.412,0.982c0,0.355,0.111,0.676,0.336,0.957s0.773,0.695,1.646,1.24
			c0.766,0.473,1.262,0.867,1.49,1.189c0.229,0.32,0.342,0.707,0.342,1.158c0,0.725-0.209,1.285-0.627,1.686
			c-0.416,0.4-1.002,0.6-1.762,0.6c-0.754,0-1.324-0.191-1.711-0.574s-0.58-0.945-0.58-1.688c0-0.08,0.002-0.143,0.004-0.184
			C230.267,49.611,230.269,49.574,230.274,49.543z"/>
	</g>
</g>
</svg>
